<svg width="92" height="27" viewBox="0 0 92 27" fill="none" xmlns="http://www.w3.org/2000/svg">
<path d="M0 15.9237L2.95927 13.2932L3.89872 13.6455L4.25101 12.3538C4.68942 10.7724 5.37835 9.59804 6.3178 8.83083C7.25725 8.04795 8.4159 7.65651 9.79376 7.65651C10.8428 7.65651 11.7823 7.94618 12.6121 8.52551C13.4576 9.08918 14.1152 9.87205 14.585 10.8741C15.0547 11.8606 15.2895 12.9722 15.2895 14.2092C15.2895 15.5401 15.0625 16.6831 14.6084 17.6382C14.1544 18.5933 13.5359 19.3213 12.753 19.8224C11.9858 20.3078 11.1246 20.5505 10.1695 20.5505C9.65284 20.5505 9.06569 20.4487 8.40807 20.2451C7.75046 20.0573 6.86581 19.7519 5.75413 19.3292L4.46239 18.8595V26.5864H0V15.9237ZM8.05578 15.1251C9.21443 15.4853 9.91902 15.6653 10.1695 15.6653C10.4983 15.6653 10.7645 15.5401 10.9681 15.2895C11.1873 15.0234 11.2969 14.6554 11.2969 14.1857C11.2969 13.6377 11.1638 13.2071 10.8976 12.8939C10.6314 12.5651 10.3026 12.4007 9.91119 12.4007C9.56673 12.4007 9.26141 12.5338 8.99523 12.8C8.72905 13.0505 8.53333 13.3872 8.40807 13.8099L8.05578 15.1251Z" fill="#FDFDFD"/>
<path d="M23.2508 20.1512C22.0139 20.1512 20.9727 19.8928 20.1272 19.3761C19.2973 18.8438 18.671 18.1314 18.2483 17.2389C17.8412 16.3308 17.6376 15.3287 17.6376 14.2327V3.45248H22.1V14.1622C22.1 14.5693 22.1548 14.8276 22.2644 14.9372C22.3897 15.0469 22.6793 15.1017 23.1334 15.1017H24.4251L24.613 17.5912L24.4251 20.1512H23.2508Z" fill="#FDFDFD"/>
<path d="M24.1899 15.1017H29.0985L29.3334 17.5677L29.0985 20.1512H24.1899V15.1017Z" fill="#FDFDFD"/>
<path d="M28.8459 15.1017H33.7545L33.9894 17.5677L33.7545 20.1512H28.8459V15.1017Z" fill="#FDFDFD"/>
<path d="M33.5018 15.1017H38.4105L38.6453 17.5677L38.4105 20.1512H33.5018V15.1017Z" fill="#FDFDFD"/>
<path d="M38.1578 15.1017H43.0664L43.3013 17.5677L43.0664 20.1512H38.1578V15.1017Z" fill="#FDFDFD"/>
<path d="M42.8138 15.1017H47.7224L47.9572 17.5677L47.7224 20.1512H42.8138V15.1017Z" fill="#FDFDFD"/>
<path d="M47.4697 15.1017H48.1273C48.3622 15.1017 48.5423 15.0547 48.6675 14.9607C48.8084 14.8511 48.918 14.6632 48.9963 14.3971L49.56 12.3538C50.4525 9.22226 52.3001 7.65651 55.1028 7.65651C56.1518 7.65651 57.0913 7.94618 57.9211 8.52551C58.7666 9.10483 59.4242 9.89554 59.8939 10.8976C60.3637 11.884 60.5985 12.9879 60.5985 14.2092V14.7024C60.6768 14.8433 60.8177 14.9451 61.0213 15.0077C61.2248 15.0703 61.538 15.1017 61.9607 15.1017H62.313L62.5479 17.5677L62.313 20.1512H61.9607C60.7551 20.1512 59.7139 19.838 58.8371 19.2117C58.383 19.6502 57.8663 19.979 57.287 20.1982C56.7076 20.433 56.1048 20.5505 55.4785 20.5505C54.9618 20.5505 54.3825 20.4409 53.7406 20.2217C53.1143 20.0181 52.2609 19.6736 51.1805 19.1883C50.3664 19.8302 49.4739 20.1512 48.5031 20.1512H47.4697V15.1017ZM53.3648 15.0312C54.3825 15.4539 55.0871 15.6653 55.4785 15.6653C55.8073 15.6653 56.0735 15.5401 56.2771 15.2895C56.4963 15.0234 56.6059 14.6554 56.6059 14.1857C56.6059 13.6377 56.4728 13.2071 56.2066 12.8939C55.9404 12.5651 55.6116 12.4007 55.2202 12.4007C54.8757 12.4007 54.5704 12.5338 54.3042 12.8C54.038 13.0505 53.8423 13.3872 53.7171 13.8099L53.3648 15.0312Z" fill="#FDFDFD"/>
<path d="M62.0569 15.1017H63.3956C63.6618 15.1017 63.8575 15.0625 63.9827 14.9842C64.108 14.8903 64.1706 14.7259 64.1706 14.491V3.45248H68.633V14.491C68.633 14.7259 68.6878 14.8903 68.7974 14.9842C68.9227 15.0625 69.1184 15.1017 69.3846 15.1017H70.3945L70.5824 17.6382L70.3945 20.1512H69.502C68.3434 20.1512 67.3491 19.8224 66.5193 19.1648C65.6268 19.8224 64.6404 20.1512 63.56 20.1512H62.0569V15.1017Z" fill="#FDFDFD"/>
<path d="M78.4198 11.4378V14.491C78.4198 14.7415 78.4746 14.9059 78.5842 14.9842C78.6938 15.0625 78.8895 15.1017 79.1714 15.1017H80.1343L80.3222 17.7321L80.1343 20.1512H79.0305C77.9501 20.1512 76.9558 19.8067 76.0477 19.1178C75.5936 19.4466 75.0926 19.705 74.5446 19.8928C74.0122 20.0651 73.4799 20.1512 72.9475 20.1512H70.1761V15.1017H72.924C73.3468 15.1017 73.6208 15.0625 73.746 14.9842C73.887 14.9059 73.9574 14.7415 73.9574 14.491V11.4378H78.4198ZM68.3912 22.2415H75.2961V25.7409H68.3912V22.2415Z" fill="#FDFDFD"/>
<path d="M79.9009 15.1017H83.095C82.3278 14.7102 81.7407 14.2092 81.3336 13.5985C80.9265 12.9879 80.7229 12.1972 80.7229 11.2264C80.7229 9.47278 81.1927 8.10275 82.1321 7.11633C83.0872 6.12991 84.3555 5.6367 85.9369 5.6367C87.6122 5.6367 88.9275 6.1534 89.8826 7.18679C90.8377 8.20453 91.3152 9.68416 91.3152 11.6257V12.6591C91.3152 14.9294 90.7359 16.7457 89.5772 18.1079C88.4342 19.4701 86.5319 20.1512 83.8701 20.1512H79.9009V15.1017ZM83.9171 0H87.9097V3.87523H83.9171V0ZM84.7156 11.015C84.7156 11.2812 84.7939 11.5083 84.9505 11.6961C85.1227 11.8684 85.3889 12.0328 85.749 12.1894L87.1816 12.7765V11.1795C87.1816 10.7567 87.0799 10.4122 86.8763 10.1461C86.6884 9.86422 86.3753 9.7233 85.9369 9.7233C85.4985 9.7233 85.1853 9.84856 84.9974 10.0991C84.8095 10.3496 84.7156 10.6549 84.7156 11.015Z" fill="#FDFDFD"/>
</svg>
